<?xml version="1.0" encoding="utf-8"?>
<!-- Generator: Adobe Illustrator 18.1.1, SVG Export Plug-In . SVG Version: 6.00 Build 0)  -->
<svg version="1.1" id="Layer_1" xmlns="http://www.w3.org/2000/svg" xmlns:xlink="http://www.w3.org/1999/xlink" x="0px" y="0px"
	 viewBox="0 0 80 80" enable-background="new 0 0 80 80" xml:space="preserve">
<path fill="#6AC0CF" d="M43.8,19.3c0.2,3-2.5,5.6-5.6,5.5c-3-0.1-5.4-2.4-5.4-5.6c0-3,2.5-5.6,5.9-5.5C41.3,13.8,44,16.3,43.8,19.3z
	"/>
<path fill="#6AC0CF" d="M22,25.7c1.9-0.1,3.5,1.5,3.5,3.5c0,2-1.5,3.5-3.5,3.5c-1.9,0-3.6-1.6-3.5-3.7C18.5,27.2,20,25.5,22,25.7z"
	/>
<path fill="#6AC0CF" d="M54.9,25.7c1.9-0.1,3.5,1.6,3.5,3.5c0,2.1-1.5,3.5-3.5,3.5c-1.9,0-3.6-1.5-3.5-3.8
	C51.4,27.3,53,25.5,54.9,25.7z"/>
<path fill="#6AC0CF" d="M67.9,65c-0.2-0.6-0.3-1.2-0.5-1.8c-0.5-2-1.1-4-1.6-6c-0.4-1.5-0.8-3-1.2-4.5c-0.4-1.5-0.8-3-1.2-4.5
	c-0.1-0.2-0.1-0.3-0.3-0.3c-0.4,0-0.7,0-1.1,0c-0.3,0-0.4-0.1-0.4-0.4c0-0.3,0-0.6-0.1-0.9c0-1.2-0.2-2.3-0.5-3.5
	c-0.3-1.6-0.8-3.2-1.4-4.7c-0.6-1.4-1.3-2.6-2.5-3.6c-0.8-0.7-1.8-1.1-2.8-1c-1.1,0.2-2,0.9-2.7,1.7c-0.6,0.7-1,1.5-1.4,2.3
	c-0.6,1.2-1,2.4-1.3,3.7c-0.3,1.2-0.5,2.5-0.7,3.8c-0.1-0.3-0.1-0.5-0.1-0.7c0-0.5,0-0.9-0.1-1.4c-0.2-1.2-0.3-2.4-0.6-3.7
	c-0.4-1.9-0.9-3.8-1.5-5.6c-0.5-1.4-1.1-2.8-2-4c-0.8-1.2-1.6-2.3-2.9-3.1c-1.4-0.9-2.9-1.2-4.5-0.5c-0.9,0.4-1.7,1-2.3,1.8
	c-1.1,1.2-1.9,2.6-2.6,4.1c-0.4,0.8-0.7,1.7-1,2.5c-0.3,0.9-0.6,1.9-0.8,2.9c-0.3,1.2-0.5,2.4-0.7,3.6c-0.2,1-0.3,2.1-0.4,3.2
	c0,0.6-0.1,1.1-0.1,1.7c0-0.2-0.1-0.4-0.1-0.6c-0.1-1.1-0.3-2.2-0.6-3.3c-0.4-1.7-1-3.4-1.9-5c-0.5-0.9-1.1-1.7-1.9-2.4
	c-0.6-0.5-1.3-0.8-2.1-0.9c-1.1,0-2,0.5-2.8,1.2c-1.3,1.3-2.1,3-2.7,4.7c-0.4,1.1-0.7,2.2-0.9,3.3c-0.3,1.6-0.5,3.2-0.6,4.7
	c0,0.6,0,1.1-0.1,1.7c0,0.1-0.1,0.2-0.2,0.4c-0.3,0.5-0.6,1-0.8,1.5C13.2,52.6,13,54,13,55.3c-0.1,2.2,0,4.4,0.8,6.5
	c0.5,1.4,1.3,2.5,2.7,3.2c1.3,0.7,2.7,0.8,4.2,0.5c2.1-0.4,3.5-1.7,4.2-3.7c0.6-1.6,0.8-3.2,0.8-4.9c0-0.8,0-1.6-0.1-2.3
	c-0.1-1.2-0.3-2.4-0.8-3.5c-0.6-1.5-1.6-2.7-3.1-3.2c-1.4-0.5-2.8-0.5-4.3-0.1c-0.8,0.2-1.5,0.7-2.1,1.2c-0.1-0.1,0-0.2,0-0.3
	c0.3-1.9,0.8-3.8,1.6-5.6c0.6-1.3,1.3-2.6,2.4-3.6c0.7-0.6,1.5-1,2.4-1c0.9,0,1.7,0.4,2.4,1c1.2,1,1.9,2.3,2.5,3.7
	c0.5,1.1,0.8,2.2,1.1,3.3c0.2,0.8,0.4,1.6,0.4,2.4c0,5.3,0,10.7,0,16c0,0.3,0.1,0.4,0.3,0.3c1.4,0,2.9,0,4.3,0c1,0,1.9-0.1,2.8-0.3
	c1.5-0.4,2.6-1.3,3.3-2.6c0.8-1.5,1-3.2,1.1-4.9c0-1.1,0-2.1-0.1-3.2c-0.1-1.1-0.4-2.2-0.9-3.2c-0.5-1-1.3-1.9-2.3-2.4
	c-1.1-0.6-2.3-0.8-3.5-0.8c-1.3,0-2.6,0-4,0c-0.3,0-0.3-0.1-0.3-0.4c0.1-0.4,0.2-0.7,0.2-1.1c0.3-1.8,0.8-3.6,1.4-5.4
	c0.6-1.7,1.3-3.3,2.3-4.8c0.8-1.2,1.7-2.2,3-2.9c1.6-0.9,3.1-0.8,4.7,0.1c1.3,0.8,2.3,2,3.1,3.2c0.8,1.3,1.5,2.7,2,4.1
	c0.6,1.6,1.1,3.3,1.4,5c0.1,0.6,0.3,1.2,0.4,1.9c0,0.2,0,0.2-0.2,0.2c-0.3,0-0.6,0-1,0c-0.3,0-0.4,0.1-0.5,0.3c-0.2,1-0.5,2-0.8,2.9
	c-0.3,1.2-0.7,2.4-1,3.7c-0.5,1.7-0.9,3.4-1.4,5.1C42.3,61,42,62,41.7,63.1c-0.2,0.7-0.4,1.4-0.6,2.2c0.7,0,1.4,0,2.1,0
	c0.7,0,0.7,0,0.8-0.6c0.3-1.4,0.6-2.8,1-4.2c0-0.2,0.1-0.3,0.3-0.3c1.5,0,3,0,4.5,0c0.2,0,0.3,0.1,0.3,0.3c0.1,0.5,0.2,1,0.3,1.5
	c0.2,1,0.5,2,0.7,3.1c0,0.2,0.1,0.2,0.3,0.2c0.8,0,1.6,0,2.4,0c0.2,0,0.2-0.1,0.1-0.2c-0.1-0.3-0.2-0.6-0.3-0.9
	c-0.5-1.8-1-3.6-1.5-5.3c-0.5-2-1.1-3.9-1.6-5.9c-0.4-1.6-0.9-3.1-1.3-4.7c0-0.1,0-0.3-0.3-0.3c-0.2,0-0.6,0.1-0.7-0.1
	c-0.1-0.2,0.1-0.5,0.1-0.7c0-0.1,0-0.2,0.1-0.3c0.5-1.7,1-3.4,1.9-4.9c0.6-1,1.3-2,2.3-2.7c1.1-0.7,2.2-0.8,3.4-0.2
	c1.1,0.6,1.8,1.5,2.4,2.5c1.1,1.9,1.8,4,2.2,6.1c0,0.2,0,0.2-0.2,0.2c-0.2,0-0.5,0-0.7,0c-0.2,0-0.3,0.1-0.3,0.3
	c-0.1,0.4-0.2,0.7-0.3,1c-0.3,1.2-0.7,2.4-1,3.6c-0.3,1.2-0.6,2.4-1,3.6c-0.2,0.8-0.5,1.6-0.7,2.5c-0.4,1.3-0.7,2.6-1,3.8
	c-0.2,0.8-0.4,1.6-0.6,2.4c0,0.2,0,0.2,0.2,0.2c0.7,0,1.4,0,2.1,0c0.4,0,0.5-0.1,0.6-0.5c0-0.2,0.1-0.4,0.2-0.7
	c0.3-1.2,0.6-2.4,0.9-3.7c0-0.2,0.1-0.3,0.4-0.3c1.5,0,2.9,0,4.4,0c0.2,0,0.3,0.1,0.4,0.3c0.1,0.5,0.2,0.9,0.3,1.4
	c0.2,1.1,0.5,2.1,0.7,3.2c0,0.2,0.1,0.2,0.3,0.2c0.8,0,1.6,0,2.3,0C67.9,65.3,67.9,65.2,67.9,65z M16.3,51.9
	c0.3-0.8,0.7-1.6,1.4-2.1c1.2-0.9,2.8-0.6,3.7,0.5c0.8,0.9,1.1,2.1,1.3,3.2c0.2,1.3,0.3,2.6,0.2,3.9c-0.1,1.4-0.2,2.8-0.7,4
	c-0.4,0.8-0.8,1.6-1.7,2c-1,0.5-2.2,0.3-3-0.5c-0.8-0.8-1.1-1.8-1.4-2.8c-0.1-0.6-0.2-1.2-0.3-1.8c0-0.6-0.1-1.2-0.1-1.8
	C15.6,55,15.7,53.4,16.3,51.9z M31,49.7c0.6,0,1.3,0,2,0c1.8,0,3,0.9,3.7,2.5c0.3,0.8,0.4,1.7,0.5,2.6c0.1,1,0.1,2,0,3
	c-0.1,1.3-0.2,2.6-0.9,3.8c-0.7,1.1-1.7,1.7-3,1.8c-0.8,0.1-1.6,0-2.3,0.1c-0.3,0-0.3-0.1-0.3-0.3c0-2.2,0-4.4,0-6.6
	c0-2.2,0-4.3,0-6.5C30.7,49.8,30.8,49.7,31,49.7z M49.7,58.4c-1.4,0-2.7,0-4.1,0c0.6-3,1.4-5.9,2-8.9c0.3,0.8,0,1.6,0.3,2.4
	c0.1-0.2,0-0.5,0.1-0.7C48.5,53.6,49.1,56,49.7,58.4z M63.3,58.4c-1.2,0-2.4,0-3.6,0c-0.3,0-0.3-0.1-0.2-0.3
	c0.2-0.9,0.4-1.8,0.7-2.7c0.4-1.5,0.7-3.1,1-4.6c0-0.1,0.1-0.3,0.1-0.4c0.1,0.6,0.2,1.1,0.2,1.7c0.2-0.3,0.1-0.6,0.1-0.9
	c0-0.3,0-0.6,0-0.9c0,0,0.1,0,0.1,0c0.1,0.3,0.2,0.6,0.2,0.9c0.2,1,0.4,2,0.7,3c0.3,1.3,0.6,2.7,0.9,4
	C63.5,58.4,63.5,58.4,63.3,58.4z"/>
</svg>
